<svg xmlns="http://www.w3.org/2000/svg" width="198" height="197" fill="#543c32" xmlns:v="https://vecta.io/nano"><path d="M184.278 102.565c-.194 2.797 1.74 4.535 4.568 4.826l-4.77.253-.094 1.351 6.513.453.399-5.744-1.783-.124-.252 3.623c-1.714-.572-2.794-1.59-2.646-3.711.172-2.478 2.059-3.572 4.724-3.387 2.609.182 4.365 1.511 4.182 4.139-.141 2.027-1.463 3.142-3.103 3.405l1.186 1.931c2.331-.706 3.743-2.569 3.927-5.216.272-3.904-2.337-6.254-6.035-6.511-3.998-.278-6.591 1.484-6.816 4.712zm-3.199 19.907l1.825.458 1.652-6.588 3.504.878-1.368 5.457 1.825.458 1.368-5.457 3.248.814-1.652 6.589 1.825.457 2.169-8.651-12.227-3.065-2.169 8.65zm-3.354 9.071l9.877 4.178-1.51 3.569 1.733.733 3.841-9.08-1.733-.733-1.502 3.552-9.878-4.177-.828 1.958zm-8.818 15.79l10.275 7.303 1.232-1.733-10.275-7.303-1.232 1.733zm-4.405 5.824l5.119 4.69 1.794 1.44-2.094-.361-9.027-1.178-1.322 1.443 9.294 8.517 1.437-1.568-5.105-4.678-1.851-1.517 2.296.419 8.855 1.198 1.334-1.456-9.294-8.517-1.436 1.568zm-19.541 17.026l5.791 9.027-3.263 2.092 1.016 1.584 8.299-5.323-1.016-1.584-3.247 2.083-5.79-9.027-1.79 1.148zm-11.804 6.109c-3.386 1.462-4.574 5.07-3.127 8.421 1.439 3.334 4.88 4.943 8.266 3.481 3.403-1.469 4.574-5.07 3.134-8.404-1.447-3.351-4.87-4.967-8.273-3.498zm.788 1.873c2.418-1.044 4.393.112 5.43 2.513 1.029 2.384.524 4.631-1.895 5.675s-4.383-.136-5.412-2.52c-1.037-2.401-.541-4.623 1.877-5.668zm-14.82 2.829c-3.352.786-4.509 2.855-3.637 6.573l1.65 7.034 2.052-.481-1.655-7.052c-.571-2.437-.016-3.61 2.036-4.092 2.015-.473 3.071.323 3.643 2.76l1.654 7.052 2.052-.481-1.65-7.034c-.873-3.719-2.866-5.049-6.145-4.279zm-14.796 2.253c-2.779.172-4.605 1.737-5.337 4.232l1.924 1.239c.279-1.902 1.359-3.327 3.519-3.46 2.591-.16 3.927 1.623 4.087 4.215.162 2.61-.945 4.526-3.537 4.686-2.16.134-3.406-1.128-3.918-3l-1.757 1.466c1.035 2.406 3.039 3.714 5.818 3.543 3.869-.239 5.872-3.21 5.648-6.834s-2.578-6.326-6.447-6.087zm-11.799.146l-.634 5.457-6.018-.699.634-5.457-2.112-.245-1.454 12.522 2.112.245.603-5.196 6.018.699-.603 5.196 2.112.245 1.454-12.522-2.112-.245zm-26.105-1.544l-.569 1.515 4.422 1.659.569-1.515-4.422-1.659zm-13.603-11.984c-2.332-1.556-4.801-.739-6.456 1.572l2.148-4.267-1.127-.752-3.625 5.43 4.788 3.196.992-1.486-3.02-2.016c1.347-1.205 2.767-1.637 4.535-.457 2.066 1.379 2.08 3.561.596 5.783-1.452 2.175-3.477 3.04-5.668 1.577-1.69-1.128-2.002-2.83-1.417-4.384l-2.265.071c-.544 2.374.373 4.525 2.579 5.998 3.255 2.173 6.59 1.074 8.648-2.009 2.225-3.333 1.982-6.459-.709-8.256zm-15.534-12.5l-1.296 1.364 4.923 4.679-2.489 2.618-4.078-3.875-1.296 1.364 4.078 3.875-2.307 2.428-4.924-4.679-1.296 1.364 6.465 6.143 8.684-9.137-6.465-6.144zm-6.31-7.491l-8.509 6.528-2.359-3.075-1.493 1.146 6.001 7.822 1.493-1.146-2.348-3.06 8.509-6.528-1.294-1.687zm-9.362-15.384l-11.419 5.34.901 1.926 11.419-5.34-.901-1.926zm-2.914-6.711l-6.612 2.118-2.14.844 1.352-1.638 5.5-7.255-.597-1.863L4.2 123.831l.649 2.024 6.594-2.112 2.235-.854-1.503 1.785-5.432 7.094.603 1.882 12.005-3.846-.649-2.025zm-5.099-25.208l-10.709.579-.209-3.871-1.879.102.532 9.845 1.879-.102-.208-3.851 10.709-.579-.115-2.123zm.533-13.683c.411-3.665-2.131-6.487-5.758-6.894-3.609-.405-6.713 1.784-7.125 5.448-.413 3.683 2.131 6.487 5.739 6.892 3.627.407 6.73-1.763 7.143-5.446zm-2.017-.245c-.294 2.618-2.277 3.758-4.876 3.466-2.58-.29-4.28-1.844-3.986-4.461S5.55 83.91 8.13 84.2c2.599.292 4.282 1.825 3.988 4.443zm4.804-14.042c.976-3.302-.249-5.332-3.912-6.414l-6.929-2.048-.597 2.021 6.947 2.053c2.4.709 3.145 1.773 2.548 3.794-.587 1.985-1.801 2.509-4.201 1.8l-6.947-2.053-.597 2.021 6.929 2.048c3.663 1.082 5.805.009 6.759-3.221zm5.351-14.04c1.236-2.496.789-4.858-1.011-6.736l-2.032 1.051c1.511 1.189 2.207 2.835 1.247 4.774-1.152 2.327-3.364 2.597-5.691 1.445-2.344-1.16-3.454-3.075-2.302-5.401.96-1.939 2.675-2.392 4.553-1.903l-.396-2.254c-2.601-.301-4.734.784-5.97 3.28-1.72 3.474-.142 6.69 3.113 8.301s6.769.916 8.488-2.558zm5.609-10.189l-4.419-3.264 3.6-4.873 4.419 3.264 1.263-1.71-10.14-7.49-1.263 1.71 4.207 3.108-3.6 4.873-4.207-3.108-1.263 1.71 10.14 7.49 1.263-1.71zm14.002-21.747l-1.04-1.239-3.618 3.036 1.04 1.24 3.618-3.036zm17.28-6.135c2.503-1.262 3.008-3.814 1.812-6.393l2.656 3.971 1.21-.61-2.94-5.83-5.141 2.593.805 1.596 3.242-1.635c.385 1.766.062 3.214-1.837 4.172-2.218 1.118-4.123.056-5.326-2.329-1.178-2.335-.933-4.524 1.419-5.71 1.814-.915 3.449-.348 4.513.927l1.053-2.006c-1.798-1.643-4.121-1.904-6.49-.71-3.494 1.762-4.181 5.206-2.512 8.516 1.805 3.578 4.645 4.906 7.535 3.449zm18.114-7.264l-.547-1.8-6.499 1.974-1.05-3.456 5.383-1.635-.547-1.8-5.383 1.635-.974-3.205 6.499-1.974-.547-1.8-8.533 2.592 3.664 12.062 8.533-2.592zm9.628-1.866L85.424 2.738l3.839-.536-.26-1.863-9.764 1.363.26 1.863 3.82-.533 1.483 10.622 2.106-.294zm18.4-.623l1.02-12.565L104.208 0l-1.02 12.565 2.119.172zm7.516.788l1.431-6.794.326-2.277.755 1.986 3.583 8.369 1.914.403 2.598-12.336-2.08-.438-1.427 6.775-.364 2.365-.808-2.189-3.477-8.231-1.933-.407-2.598 12.336 2.08.438zm24.724 8.138l4.829-9.576 3.461 1.745.847-1.68-8.803-4.44-.847 1.68 3.444 1.737-4.83 9.576 1.899.957zm11.06 6.895c2.982 2.169 6.693 1.355 8.84-1.597 2.136-2.937 1.768-6.717-1.214-8.887-2.997-2.18-6.692-1.355-8.829 1.582-2.147 2.952-1.794 6.721 1.203 8.902zm1.211-1.632c-2.13-1.549-2.141-3.838-.603-5.952 1.528-2.1 3.719-2.809 5.849-1.26s2.115 3.842.587 5.942c-1.538 2.115-3.703 2.82-5.833 1.271zm9.945 11.176c2.39 2.479 4.76 2.415 7.509-.236l5.201-5.015-1.462-1.517-5.215 5.028c-1.801 1.737-3.094 1.86-4.557.343-1.437-1.49-1.293-2.805.508-4.542l5.215-5.028-1.463-1.517-5.201 5.015c-2.749 2.651-2.873 5.044-.535 7.469zm9.753 11.777c1.563 2.304 3.839 3.08 6.36 2.438l.086-2.286c-1.779.729-3.555.524-4.769-1.267-1.458-2.149-.603-4.207 1.546-5.664 2.165-1.468 4.377-1.491 5.835.658 1.214 1.791.763 3.506-.588 4.9l2.157.766c1.543-2.115 1.649-4.506.086-6.811-2.176-3.208-5.752-3.419-8.757-1.381s-4.132 5.439-1.956 8.647zm5.925 9.531l5.011-2.253 2.484 5.526-5.011 2.253.872 1.939 11.498-5.169-.872-1.939-4.771 2.145-2.484-5.526 4.77-2.145-.871-1.939-11.498 5.169.872 1.939zM187.6 82.689l1.592-.291-.849-4.646-1.592.291.849 4.646z"/></svg>