<svg xmlns="http://www.w3.org/2000/svg" width="145" height="146" fill="#543c32" xmlns:v="https://vecta.io/nano"><path d="M134.404 74.082l3.166.319-.241 2.405c-.214 2.121.713 3.859 2.998 4.089 2.391.24 3.631-1.295 3.843-3.401l.412-4.093-10.009-1.007-.169 1.688zm8.289 3.097c-.116 1.15-.636 2.124-2.19 1.968-1.449-.146-1.78-1.205-1.664-2.355l.225-2.241 3.854.388-.225 2.241zm-11.502 14.879l1.433.447 1.534-4.916 8.17 2.549.505-1.62-9.602-2.997-2.04 6.535zm-1.658 5.302l1.75 2.073-2.066 3.713-2.685-.394-.905 1.627 10.703 1.454.949-1.706-6.878-8.328-.868 1.561zm4.636 5.501l1.325 1.355-1.851-.411-2.871-.429 1.526-2.742 1.871 2.227zm-13.89 9.166l2.723 2.405 2.311 7.09 1.302-1.474-1.048-3.009-.995-2.342 2.428.743 3.055.715 1.391-1.575-7.32-1.419-2.723-2.406-1.124 1.272zm-15.997 13.648c-1.792.98-2.631 2.637-1.759 4.231.922 1.686 2.489 1.548 4.085 1.119l1.118-.303c1.091-.288 1.849-.343 2.274.434.367.672-.023 1.398-.866 1.859-1.08.591-2.288.636-3.373-.191l-.536 1.679c1.295.866 2.953.832 4.573-.054 1.66-.908 2.606-2.589 1.698-4.248-.914-1.673-2.555-1.512-3.95-1.091l-.931.269c-1.283.376-2.124.528-2.592-.328-.439-.803.099-1.509.982-1.991 1.08-.591 2.684-.818 3.864.214l.47-1.643c-1.498-1.114-3.371-.878-5.057.044zm-9.242 4.908l1.227 4.209-4.641 1.353-1.227-4.209-1.629.475 2.815 9.657 1.629-.475-1.168-4.007 4.641-1.353 1.168 4.008 1.629-.475-2.815-9.658-1.629.475zm-15.918 3.552c-2.938.159-4.825 2.532-4.668 5.44.156 2.894 2.288 5.049 5.226 4.89 2.953-.16 4.825-2.531 4.669-5.425-.157-2.908-2.274-5.064-5.227-4.905zm.072 1.62c2.099-.113 3.258 1.298 3.37 3.382.112 2.068-.887 3.611-2.986 3.725s-3.243-1.314-3.355-3.382c-.113-2.084.872-3.611 2.971-3.725zm-14.106-1.429l-2.821 5.491-1.162 2.622.017-2.868-.291-6.159-2.084-.447-4.709 9.278 1.879.403 2.535-5.445 1.05-2.676-.016 2.791.261 6.152 2.143.46 2.792-5.497 1.146-2.549-.155 2.869.049 5.999 1.908.41-.458-10.387-2.085-.447zm-15.003-3.836l-1.719 3.505-1.105-.542c-.849-.417-1.202-.857-1.241-1.629l-.248-3.45-1.752-.859.261 3.355c.046.725.245 1.241.704 1.667-1.495-.533-2.969-.152-3.709 1.358-.912 1.86 0 3.478 1.833 4.377l4.071 1.997 4.429-9.032-1.523-.747zm-6.168 6.507c-.957-.47-1.607-1.223-1.046-2.369.536-1.092 1.53-1.039 2.487-.57l2.399 1.177-1.441 2.939-2.399-1.177zm-9.618-15.859l-.923 1.184 4.276 3.331-1.771 2.274-3.542-2.759-.923 1.185 3.542 2.758-1.642 2.109-4.276-3.331-.923 1.185 5.614 4.373 6.181-7.936-5.614-4.373zm-8.811-8.588l-1.139.978 3.529 4.113-2.188 1.877-2.923-3.407-1.139.978 2.923 3.407-2.028 1.74-3.529-4.114-1.139.978 4.634 5.401 7.635-6.55-4.634-5.401zm-6.829-9.957l-1.307.74 2.537 4.481-7.447 4.216.836 1.477 8.754-4.956-3.373-5.958zM9.202 87.437l-1.264.261.763 3.691 1.264-.261-.763-3.69zm1.707-16.736l-3.16-.379.288-2.4c.254-2.117-.639-3.872-2.92-4.146-2.385-.286-3.655 1.225-3.908 3.327l-.49 4.084 9.987 1.199.202-1.684zm-8.228-3.256c.138-1.148.677-2.111 2.227-1.925 1.446.174 1.757 1.239 1.619 2.387l-.268 2.236-3.846-.462.268-2.236zM14.347 53.13l-1.426-.469-1.608 4.892-8.13-2.672-.53 1.612 9.556 3.141 2.138-6.504zm1.8-5.473l-1.711-2.105 2.134-3.674 2.677.444.935-1.61L9.507 39.06l-.98 1.688 6.723 8.454.897-1.545zm-4.534-5.585l-1.299-1.38 1.842.445 2.863.482-1.576 2.713-1.83-2.261zm13.816-8.677l-2.688-2.445-2.207-7.123-1.324 1.455 1.004 3.024.962 2.357-2.418-.778-3.044-.759-1.414 1.555 7.299 1.525 2.688 2.445 1.142-1.255zm16.282-13.559c1.809-.946 2.679-2.587 1.837-4.197-.891-1.703-2.46-1.594-4.065-1.195l-1.123.282c-1.096.269-1.855.309-2.265-.476-.355-.678.048-1.398.9-1.843 1.091-.571 2.299-.593 3.369.254l.567-1.669c-1.279-.89-2.937-.886-4.574-.031-1.676.877-2.653 2.54-1.776 4.216.884 1.69 2.527 1.559 3.93 1.164l.936-.252c1.29-.353 2.133-.489 2.586.376.425.811-.127 1.507-1.018 1.973-1.091.571-2.699.768-3.86-.285l-.501 1.634c1.478 1.142 3.355.939 5.058.049zm9.397-4.823l-1.147-4.231 4.666-1.264 1.147 4.231 1.637-.444-2.631-9.709-1.637.444 1.092 4.029-4.666 1.264-1.092-4.029-1.638.444 2.631 9.709 1.638-.444zm15.948-3.304c2.941-.102 4.873-2.438 4.772-5.349-.101-2.896-2.19-5.092-5.131-4.99-2.956.103-4.873 2.438-4.772 5.334.101 2.911 2.175 5.107 5.131 5.005zm-.041-1.621c-2.101.073-3.232-1.36-3.305-3.446-.072-2.071.957-3.594 3.057-3.667s3.218 1.375 3.29 3.446c.072 2.086-.942 3.593-3.042 3.666zm13.982 1.623l2.905-5.447 1.201-2.604-.06 2.867.197 6.162 2.077.479 4.85-9.205-1.873-.432-2.618 5.405-1.091 2.66.058-2.791-.168-6.156-2.136-.493-2.875 5.454-1.184 2.531.199-2.866.043-5.999L78.619.84l.3 10.392 2.078.479zm14.673 3.893l1.771-3.479 1.097.558c.843.429 1.189.875 1.217 1.647l.197 3.453 1.74.885-.211-3.359c-.035-.725-.226-1.244-.68-1.677 1.487.555 2.967.196 3.729-1.303.94-1.847.052-3.478-1.767-4.404L98.721 5.87l-4.563 8.965 1.512.77zm6.263-6.414c.95.484 1.589 1.247 1.011 2.384-.552 1.084-1.545 1.016-2.495.533l-2.382-1.212 1.485-2.917 2.381 1.212zm9.535 16.011l.939-1.171-4.226-3.393 1.804-2.248 3.501 2.81.94-1.171-3.501-2.81 1.672-2.084 4.227 3.392.94-1.171-5.55-4.454-6.296 7.845 5.55 4.454zM120.295 34l1.154-.961-3.469-4.164 2.215-1.845 2.873 3.449 1.154-.961-2.873-3.449 2.053-1.71 3.469 4.165 1.153-.961-4.554-5.468-7.729 6.438L120.295 34zm6.698 10.037l1.317-.72-2.47-4.518 7.508-4.106-.814-1.489-8.826 4.826 3.285 6.007zm9.289 15.38l1.269-.242-.706-3.702-1.269.242.706 3.702z"/></svg>