<svg xmlns="http://www.w3.org/2000/svg" width="80" height="79" fill="#543c32" xmlns:v="https://vecta.io/nano"><path d="M72.337 41.77c-.252 2.034.865 3.274 2.889 3.525s3.412-.689 3.662-2.713l.307-2.474-6.552-.812-.307 2.474zm5.591.554c-.169 1.359-.916 2.021-2.559 1.818s-2.206-1.028-2.039-2.377l.154-1.242 4.596.57-.153 1.232zm-6.609 6.098l2.392.918-.29.754c-.222.58-.49.836-.992.907l-2.24.364-.459 1.196 2.178-.367c.471-.072.796-.233 1.048-.558-.26 1.008.075 1.95 1.105 2.345 1.269.487 2.273-.204 2.754-1.455l1.066-2.778-6.163-2.365-.399 1.039zm4.615 3.65c-.251.653-.705 1.122-1.487.822-.745-.286-.769-.939-.518-1.592l.628-1.638 2.005.77-.629 1.638zm-7.266 3.094l1.008 1.468-1.59 2.29-1.727-.432-.697 1.004 6.895 1.645.731-1.052-3.95-5.886-.669.963zm2.67 3.894l.777.971-1.182-.389-1.847-.467 1.175-1.692 1.077 1.576zm-8.597 3.658c-1.104.968-1.025 2.328-.081 3.479l-1.867-1.665-.533.468 2.255 2.571 2.267-1.988-.617-.704-1.43 1.254c-.427-.845-.452-1.622.385-2.356.978-.858 2.083-.569 3.006.483.903 1.03 1.066 2.172.029 3.081-.8.702-1.703.629-2.41.121l-.271 1.155c1.127.597 2.339.426 3.384-.491 1.541-1.351 1.438-3.187.158-4.647-1.384-1.578-2.998-1.879-4.272-.762zM51.77 69.913l1.874 5.294-1.913.677.329.929 4.867-1.723-.329-.929-1.904.674-1.874-5.294-1.05.371zm-6.907 1.783c-1.922.193-3.086 1.806-2.895 3.708.19 1.892 1.653 3.24 3.575 3.047 1.931-.194 3.086-1.806 2.896-3.698-.191-1.902-1.644-3.251-3.575-3.057zm.097 1.06c1.373-.138 2.175.752 2.312 2.114.136 1.353-.472 2.395-1.845 2.533s-2.166-.763-2.302-2.115c-.137-1.363.462-2.394 1.835-2.532zm-13.521-1.758l-4.25 5.599 1.158.357 2.386-3.296 1.04-1.669-.089 1.962.119 4.068 1.215.374-.364-7.02-1.215-.374zm-5.741-2.164l-3.124 5.816.981.527 3.125-5.815-.981-.527zm-6.649-4.371l-.619.766 2.766 2.237-1.189 1.471-2.291-1.852-.62.766 2.291 1.852-1.103 1.364-2.766-2.237-.62.766 3.632 2.937 4.151-5.133-3.632-2.937zm-3.587-3.348l-3.789 1.435-1.719.767 1.269-1.39 2.566-3.128-.819-1.134-6.374 2.45.738 1.023 3.629-1.538 1.689-.842-1.235 1.353-2.578 3.112.842 1.167 3.777-1.451 1.679-.738-1.337 1.33-2.614 2.944.75 1.039 4.344-5.262-.819-1.135zM6.405 48.464l-.823.203.592 2.401.823-.203-.592-2.401zm1.16-10.372c.229-2.037-.903-3.264-2.93-3.492s-3.403.728-3.631 2.755l-.278 2.477 6.561.736.278-2.477zm-5.597-.489c.153-1.361.892-2.032 2.537-1.847s2.218 1.002 2.066 2.354l-.14 1.243-4.602-.517.138-1.234zm6.552-6.259l-2.399-.9.284-.756c.218-.581.483-.84.985-.914l2.237-.381.45-1.199-2.175.384c-.471.076-.795.239-1.044.566.253-1.01-.09-1.949-1.123-2.337-1.273-.478-2.272.221-2.743 1.476l-1.045 2.786 6.181 2.319.391-1.042zm-4.642-3.615c.246-.655.697-1.128 1.481-.834.747.28.776.933.53 1.588l-.616 1.642-2.011-.755.616-1.642zm7.14-3.001l-1.024-1.457 1.565-2.308 1.732.413.686-1.011-6.913-1.569-.719 1.06 4.014 5.842.658-.97zm-2.713-3.864l-.788-.963 1.186.376 1.852.447L9.4 22.428l-1.094-1.564zm8.543-3.78c1.093-.98 1-2.339.043-3.479l1.885 1.645.528-.474-2.282-2.546-2.245 2.013.625.697 1.416-1.27c.436.84.47 1.617-.359 2.36-.968.868-2.077.591-3.011-.45-.914-1.02-1.089-2.16-.062-3.081.792-.71 1.696-.647 2.408-.148l.259-1.158c-1.133-.585-2.344-.4-3.378.527-1.526 1.368-1.403 3.203-.107 4.648 1.401 1.563 3.018 1.846 4.28.715zm10.985-7.4l-1.914-5.28 1.908-.692-.336-.926-4.854 1.759.336.926 1.899-.688 1.914 5.28 1.047-.379zm6.874-1.857c1.92-.208 3.072-1.829 2.866-3.73-.205-1.891-1.678-3.228-3.598-3.02-1.93.209-3.072 1.829-2.867 3.72.206 1.9 1.669 3.238 3.599 3.029zm-.105-1.059c-1.372.149-2.181-.735-2.328-2.097-.146-1.352.454-2.398 1.825-2.547s2.172.746 2.319 2.098c.148 1.362-.444 2.397-1.815 2.546zm13.472 1.591l4.208-5.631-1.161-.348-2.361 3.314-1.027 1.677.074-1.963-.149-4.067L46.44.977l.417 7.017 1.217.365zm5.789 2.097l3.081-5.838-.985-.52-3.081 5.838.985.52zm6.701 4.298l.614-.771-2.782-2.216 1.179-1.48 2.304 1.836.614-.771-2.304-1.836 1.093-1.372 2.782 2.216.614-.771-3.653-2.91-4.113 5.164 3.653 2.91zm3.667 3.325l3.778-1.462 1.713-.779-1.259 1.399-2.543 3.147.827 1.128 6.356-2.496-.746-1.017-3.618 1.565-1.683.855 1.225-1.362 2.555-3.131-.85-1.16-3.767 1.478-1.674.75 1.327-1.339 2.593-2.963-.757-1.033-4.305 5.294.827 1.128zm9.214 12.649l.821-.209-.611-2.397-.821.209.611 2.397z"/></svg>